<svg width="20" height="20" viewBox="0 0 20 20" fill="none" xmlns="http://www.w3.org/2000/svg">
<path fill-rule="evenodd" clip-rule="evenodd" d="M3.52635 3.4139C3.28465 5.08519 3.04643 9.59887 6.59333 13.1458C10.1402 16.6927 14.6539 16.4545 16.3252 16.2128V12.7929L12.8135 12.2076L12.2833 13.2679C12.1492 13.5361 11.8751 13.7056 11.5752 13.7056V12.9139C11.5752 13.7056 11.5748 13.7056 11.5744 13.7056L11.5736 13.7056L11.5718 13.7056L11.5678 13.7055L11.558 13.7054C11.5508 13.7053 11.5419 13.7051 11.5315 13.7048C11.5108 13.7041 11.4839 13.7029 11.4514 13.7007C11.3864 13.6964 11.2986 13.6882 11.1911 13.6729C10.9763 13.6422 10.6821 13.5826 10.3353 13.467C9.63884 13.2349 8.73712 12.7787 7.84874 11.8904C6.96037 11.002 6.50422 10.1003 6.27208 9.40383C6.15647 9.05699 6.09692 8.76277 6.06623 8.54799C6.05088 8.44054 6.04272 8.35268 6.03838 8.28769C6.03622 8.25518 6.03501 8.22834 6.03434 8.20759C6.034 8.19721 6.0338 8.18835 6.03369 8.18105L6.03357 8.17129L6.03354 8.16729L6.03354 8.16552L6.03354 8.16469C6.03354 8.16429 6.03354 8.1639 6.8252 8.1639H6.03354C6.03354 7.8992 6.16583 7.65202 6.38607 7.50519L8.2266 6.27817L7.08089 3.4139H3.52635ZM7.67517 8.54872L9.10487 7.59559C9.72786 7.18026 9.97476 6.38532 9.69668 5.69014L8.55097 2.82586C8.31052 2.22474 7.72832 1.83057 7.08089 1.83057H3.48498C2.76575 1.83057 2.08873 2.33024 1.97066 3.11061C1.70204 4.886 1.33641 10.128 5.47374 14.2654C9.61108 18.4027 14.8531 18.0371 16.6285 17.7684C17.4089 17.6504 17.9085 16.9734 17.9085 16.2541V12.7929C17.9085 12.0189 17.349 11.3583 16.5855 11.2311L13.0738 10.6458C12.3881 10.5315 11.7081 10.8778 11.3973 11.4995L11.123 12.0481C11.0368 12.027 10.9405 11.9998 10.836 11.9649C10.3449 11.8013 9.66328 11.4657 8.96833 10.7708C8.27338 10.0758 7.93785 9.3942 7.77416 8.90314C7.72993 8.77044 7.69809 8.65113 7.67517 8.54872Z" fill="#999999"/>
</svg>
