<svg width="20" height="20" viewBox="0 0 20 20" fill="none" xmlns="http://www.w3.org/2000/svg">
<path fill-rule="evenodd" clip-rule="evenodd" d="M10.4129 3.4139C7.78957 3.4139 5.66292 5.54055 5.66292 8.1639C5.66292 8.97763 5.95105 9.8872 6.43995 10.8301C6.92529 11.7661 7.5816 12.6837 8.2532 13.4992C8.92287 14.3123 9.59474 15.0084 10.1 15.5017C10.2137 15.6126 10.3186 15.713 10.4129 15.802C10.5072 15.713 10.6122 15.6126 10.7258 15.5017C11.2311 15.0084 11.903 14.3123 12.5726 13.4992C13.2442 12.6837 13.9006 11.7661 14.3859 10.8301C14.8748 9.8872 15.1629 8.97763 15.1629 8.1639C15.1629 5.54055 13.0363 3.4139 10.4129 3.4139ZM10.4129 16.8722C9.89771 17.4733 9.89757 17.4732 9.89741 17.4731L9.89573 17.4716L9.89174 17.4682L9.87786 17.4561C9.86602 17.4459 9.84908 17.4311 9.82737 17.412C9.78396 17.3737 9.72145 17.3181 9.64257 17.2465C9.48487 17.1032 9.26139 16.8957 8.99403 16.6347C8.46028 16.1136 7.74673 15.3748 7.03098 14.5057C6.31716 13.6389 5.58806 12.6268 5.03434 11.5589C4.48418 10.4979 4.07959 9.32934 4.07959 8.1639C4.07959 4.6661 6.91512 1.83057 10.4129 1.83057C13.9107 1.83057 16.7463 4.6661 16.7463 8.1639C16.7463 9.32934 16.3417 10.4979 15.7915 11.5589C15.2378 12.6268 14.5087 13.6389 13.7949 14.5057C13.0791 15.3748 12.3656 16.1136 11.8318 16.6347C11.5645 16.8957 11.341 17.1032 11.1833 17.2465C11.1044 17.3181 11.0419 17.3737 10.9985 17.412C10.9768 17.4311 10.9598 17.4459 10.948 17.4561L10.9341 17.4682L10.9301 17.4716L10.9289 17.4727C10.9287 17.4728 10.9281 17.4733 10.4129 16.8722ZM10.4129 16.8722L9.89741 17.4731C10.1939 17.7272 10.6317 17.7274 10.9281 17.4733L10.4129 16.8722ZM10.4129 6.58057C9.53847 6.58057 8.82959 7.28945 8.82959 8.1639C8.82959 9.03835 9.53847 9.74723 10.4129 9.74723C11.2874 9.74723 11.9963 9.03835 11.9963 8.1639C11.9963 7.28945 11.2874 6.58057 10.4129 6.58057ZM7.24626 8.1639C7.24626 6.415 8.66402 4.99723 10.4129 4.99723C12.1618 4.99723 13.5796 6.415 13.5796 8.1639C13.5796 9.9128 12.1618 11.3306 10.4129 11.3306C8.66402 11.3306 7.24626 9.9128 7.24626 8.1639Z" fill="#999999"/>
</svg>
